<svg height="451pt" fill="#FFF" viewBox="0 -70 451.56329 451" width="451pt" xmlns="http://www.w3.org/2000/svg"><path d="m329.703125 176.0625h-207.839844c-18.578125 0-33.640625 15.0625-33.640625 33.636719 0 18.578125 15.0625 33.640625 33.640625 33.640625h207.839844c18.578125 0 33.636719-15.0625 33.636719-33.640625 0-18.574219-15.058594-33.636719-33.636719-33.636719zm0 55.277344h-207.839844c-11.953125 0-21.640625-9.6875-21.640625-21.640625 0-11.949219 9.6875-21.636719 21.640625-21.636719h207.839844c11.949219 0 21.636719 9.6875 21.636719 21.636719 0 11.953125-9.6875 21.640625-21.636719 21.640625zm0 0"/><path d="m142.867188 198.171875h11.054687c3.316406 0 6 2.6875 6 6v11.058594c0 3.3125-2.683594 6-6 6h-11.054687c-3.3125 0-6-2.6875-6-6v-11.058594c0-3.3125 2.6875-6 6-6zm0 0"/><path d="m297.640625 198.171875h11.054687c3.316407 0 6 2.6875 6 6v11.058594c0 3.3125-2.683593 6-6 6h-11.054687c-3.3125 0-6-2.6875-6-6v-11.058594c0-3.3125 2.6875-6 6-6zm0 0"/><path d="m403.667969 150.53125h-3.847657v-94.675781c14.027344-3.066407 23.488282-16.207031 21.949219-30.480469-1.542969-14.273438-13.589843-25.09375-27.949219-25.09375-14.355468 0-26.40625 10.820312-27.945312 25.09375-1.542969 14.273438 7.921875 27.414062 21.945312 30.480469v94.675781h-2.078124c-14.019532-45.398438-55.957032-76.378906-103.46875-76.4375h-112.984376c-47.511718.058594-89.449218 31.039062-103.464843 76.4375h-17.925781c-26.488282.121094-47.898438 21.625-47.898438 48.113281s21.410156 47.996094 47.898438 48.117188h22.007812c17.140625 39.648437 56.1875 65.335937 99.382812 65.378906h112.984376c43.195312-.042969 82.242187-25.730469 99.382812-65.378906h22.011719c26.488281-.121094 47.894531-21.628907 47.894531-48.117188s-21.40625-47.992187-47.894531-48.113281zm-25.957031-122.136719c0-8.898437 7.214843-16.109375 16.113281-16.109375 8.894531 0 16.109375 7.210938 16.109375 16.109375-.003906 8.898438-7.214844 16.109375-16.113282 16.109375-8.890624-.007812-16.097656-7.214844-16.109374-16.109375zm-329.8125 206.367188c-19.875-.105469-35.929688-16.246094-35.929688-36.117188 0-19.871093 16.054688-36.011719 35.929688-36.113281h14.976562c-1.214844 6.527344-1.824219 13.15625-1.824219 19.796875v21.578125c-.003906 10.449219 1.507813 20.84375 4.488281 30.855469zm234.375 65.378906h-112.984376c-53.125-.058594-96.175781-43.109375-96.238281-96.234375v-21.578125c.0625-53.125 43.113281-96.175781 96.238281-96.234375h112.984376c53.125.058594 96.175781 43.109375 96.238281 96.234375v21.578125c-.0625 53.125-43.113281 96.175781-96.238281 96.234375zm121.394531-65.378906h-17.644531c2.980468-10.015625 4.492187-20.40625 4.488281-30.855469v-21.578125c0-6.640625-.609375-13.269531-1.824219-19.800781h14.980469c19.871093.105468 35.925781 16.246094 35.925781 36.117187 0 19.871094-16.054688 36.011719-35.925781 36.117188zm0 0"/></svg>